<svg xmlns="http://www.w3.org/2000/svg" viewBox="0 0 20 20" width="20" height="20">
  <path fill="#2F3C4E" d="M17.8 6.7c0-0.9-0.2-1.4-0.4-1.9 -0.2-0.6-0.5-1-1-1.4 -0.5-0.5-0.9-0.7-1.4-1 -0.5-0.2-1.1-0.3-1.9-0.4 -0.7 0-1 0-3.1 0S7.5 2 6.7 2.1c-0.9 0-1.4 0.2-1.9 0.4 -0.6 0.2-1 0.4-1.4 0.9 -0.5 0.4-0.7 0.9-1 1.4 -0.2 0.6-0.3 1.1-0.3 2C2 7.5 2 7.8 2 10s0 2.5 0.1 3.3c0 0.9 0.2 1.4 0.4 1.9 0.2 0.6 0.5 1 1 1.4s0.9 0.7 1.4 1C5.3 17.8 6 17.9 6.8 18c0.7 0 1.1 0 3.2 0s2.4 0 3.2-0.1c0.9 0 1.4-0.2 1.9-0.4 0.6-0.2 1-0.5 1.4-1 0.5-0.5 0.7-0.9 1-1.4 0.2-0.5 0.3-1.1 0.4-1.9 0-0.9 0.1-1 0.1-3.2C17.9 7.9 17.9 7.5 17.8 6.7zM16.4 13.2c0 0.8-0.2 1.2-0.2 1.5 -0.2 0.4-0.3 0.6-0.6 0.9 -0.2 0.2-0.6 0.5-0.9 0.6 -0.3 0.1-0.7 0.2-1.5 0.2 -0.9 0-1.1 0.1-3.2 0.1s-2.4 0-3.2-0.1c-0.8 0-1.2-0.2-1.5-0.2 -0.5-0.1-0.7-0.2-1-0.6 -0.2-0.2-0.5-0.6-0.6-0.9 -0.2-0.3-0.3-0.7-0.3-1.5 0-0.9-0.1-1.1-0.1-3.2 0-2.2 0-2.4 0.1-3.2 0-0.8 0.2-1.2 0.2-1.5 0.2-0.4 0.3-0.6 0.6-0.9 0.2-0.2 0.6-0.5 0.9-0.6C5.6 3.7 6 3.5 6.8 3.5c0.9 0 1.2-0.1 3.2-0.1s2.3 0 3.1 0.1c0.8 0 1.2 0.2 1.5 0.2 0.4 0.2 0.6 0.3 0.9 0.6C15.8 4.6 16 5 16.1 5.3c0.2 0.3 0.3 0.7 0.3 1.5 0 0.9 0.1 1.1 0.1 3.2C16.5 12.2 16.5 12.4 16.4 13.2zM10 5.9c-2.2 0-4.1 1.8-4.1 4.1s1.8 4.1 4.1 4.1S14 12.2 14 10 12.2 5.9 10 5.9M10 12.6c-1.4 0-2.6-1.2-2.6-2.6S8.5 7.4 10 7.4s2.6 1.2 2.6 2.6S11.4 12.6 10 12.6M15.1 5.8c0 0.6-0.4 1-1 1s-1-0.4-1-1 0.4-1 1-1C14.7 4.8 15.1 5.2 15.1 5.8"/>
</svg>