<svg xmlns="http://www.w3.org/2000/svg" viewBox="0 0 68 68" width="68" height="68">
  <circle fill="none" stroke="#2E3B4E" stroke-width="2" stroke-linecap="round" stroke-linejoin="round" stroke-miterlimit="10" cx="34" cy="34" r="33"/>
  <path fill="#2E3B4E" d="M45,39.5c0,0.8,0.7,1.5,1.5,1.5c0.8,0,1.5-0.7,1.5-1.5c0-0.8-0.7-1.5-1.5-1.5C45.7,38,45,38.7,45,39.5"/>
  <path fill="#2E3B4E" d="M37,39.5c0,0.8,0.7,1.5,1.5,1.5c0.8,0,1.5-0.7,1.5-1.5c0-0.8-0.7-1.5-1.5-1.5C37.7,38,37,38.7,37,39.5"/>
  <path fill="none" stroke="#2E3B4E" stroke-width="2" stroke-linecap="round" stroke-linejoin="round" stroke-miterlimit="10" d="M38,46c1.1,1.4,2.7,2,4.5,2c1.7,0,3.4-0.6,4.5-2"/>
  <path fill="#2E3B4E" d="M28,22.5c0,0.8,0.7,1.5,1.5,1.5c0.8,0,1.5-0.7,1.5-1.5c0-0.8-0.7-1.5-1.5-1.5C28.7,21,28,21.7,28,22.5"/>
  <path fill="#2E3B4E" d="M20,22.5c0,0.8,0.7,1.5,1.5,1.5c0.8,0,1.5-0.7,1.5-1.5c0-0.8-0.7-1.5-1.5-1.5C20.7,21,20,21.7,20,22.5"/>
  <path fill="none" stroke="#2E3B4E" stroke-width="2" stroke-linecap="round" stroke-linejoin="round" stroke-miterlimit="10" d="M29.9,31.1c-1.1-1.4-2.7-2.1-4.4-2.1c-1.7,0-3.4,0.7-4.5,2"/>
  <path fill="none" stroke="#2E3B4E" stroke-width="2" stroke-linecap="round" stroke-linejoin="round" stroke-miterlimit="10" d="M29.5,38.4c-1.3,0.4-2.6,0.6-4,0.6C18,39,12,33,12,25.5S18,12,25.5,12C33,12,39,18,39,25.5c0,1.4-0.2,2.7-0.6,4"/>
  <circle fill="none" stroke="#2E3B4E" stroke-width="2" stroke-linecap="round" stroke-linejoin="round" stroke-miterlimit="10" cx="42.5" cy="42.5" r="13.5"/>
</svg>