<svg xmlns="http://www.w3.org/2000/svg" xmlns:xlink="http://www.w3.org/1999/xlink" version="1.1" x="0px" y="0px" width="414px" height="196px" viewBox="0 0 414 196" enable-background="new 0 0 414 196" xml:space="preserve">
  <path fill="none" stroke="#E0E0E0" stroke-width="2" stroke-linecap="square" d="M330.5 36h-103"/>
  <polyline fill="none" stroke="#E0E0E0" stroke-width="2" points="332 46.4 332 21 226 21 226 195 332 195 "/>
  <path fill="none" stroke="#E0E0E0" stroke-width="2" d="M235 45h8c1.1 0 2 0.9 2 2v8c0 1.1-0.9 2-2 2h-8c-1.1 0-2-0.9-2-2v-8C233 45.9 233.9 45 235 45z"/>
  <path fill="none" stroke="#E0E0E0" stroke-width="2" d="M251 45h8c1.1 0 2 0.9 2 2v8c0 1.1-0.9 2-2 2h-8c-1.1 0-2-0.9-2-2v-8C249 45.9 249.9 45 251 45z"/>
  <path fill="none" stroke="#E0E0E0" stroke-width="2" d="M267 45h8c1.1 0 2 0.9 2 2v8c0 1.1-0.9 2-2 2h-8c-1.1 0-2-0.9-2-2v-8C265 45.9 265.9 45 267 45z"/>
  <path fill="none" stroke="#E0E0E0" stroke-width="2" d="M315 45h8c1.1 0 2 0.9 2 2v8c0 1.1-0.9 2-2 2h-8c-1.1 0-2-0.9-2-2v-8C313 45.9 313.9 45 315 45z"/>
  <path fill="none" stroke="#E0E0E0" stroke-width="2" d="M235 61h8c1.1 0 2 0.9 2 2v8c0 1.1-0.9 2-2 2h-8c-1.1 0-2-0.9-2-2v-8C233 61.9 233.9 61 235 61z"/>
  <path fill="none" stroke="#E0E0E0" stroke-width="2" d="M251 61h8c1.1 0 2 0.9 2 2v8c0 1.1-0.9 2-2 2h-8c-1.1 0-2-0.9-2-2v-8C249 61.9 249.9 61 251 61z"/>
  <path fill="none" stroke="#E0E0E0" stroke-width="2" d="M267 61h8c1.1 0 2 0.9 2 2v8c0 1.1-0.9 2-2 2h-8c-1.1 0-2-0.9-2-2v-8C265 61.9 265.9 61 267 61z"/>
  <path fill="none" stroke="#E0E0E0" stroke-width="2" d="M315 61h8c1.1 0 2 0.9 2 2v8c0 1.1-0.9 2-2 2h-8c-1.1 0-2-0.9-2-2v-8C313 61.9 313.9 61 315 61z"/>
  <path fill="none" stroke="#E0E0E0" stroke-width="2" d="M235 77h8c1.1 0 2 0.9 2 2v8c0 1.1-0.9 2-2 2h-8c-1.1 0-2-0.9-2-2v-8C233 77.9 233.9 77 235 77z"/>
  <path fill="none" stroke="#E0E0E0" stroke-width="2" d="M251 77h8c1.1 0 2 0.9 2 2v8c0 1.1-0.9 2-2 2h-8c-1.1 0-2-0.9-2-2v-8C249 77.9 249.9 77 251 77z"/>
  <path fill="none" stroke="#E0E0E0" stroke-width="2" d="M267 77h8c1.1 0 2 0.9 2 2v8c0 1.1-0.9 2-2 2h-8c-1.1 0-2-0.9-2-2v-8C265 77.9 265.9 77 267 77z"/>
  <path fill="none" stroke="#E0E0E0" stroke-width="2" d="M292.9 55.6c0.1-0.2 0.1-0.4 0.1-0.6v-8c0-1.1-0.9-2-2-2h-8c-1.1 0-2 0.9-2 2v8c0 1.1 0.9 2 2 2h5.1"/>
  <path fill="none" stroke="#E0E0E0" stroke-width="2" d="M299.2 57h7.8c1.1 0 2-0.9 2-2v-8c0-1.1-0.9-2-2-2h-8c-1.1 0-2 0.9-2 2v8"/>
  <path fill="none" stroke="#E0E0E0" stroke-width="2" d="M301.4 73h5.6c1.1 0 2-0.9 2-2v-8c0-1.1-0.9-2-2-2h-4.4"/>
  <path fill="none" stroke="#E0E0E0" stroke-width="2" d="M283.5 61H283c-1.1 0-2 0.9-2 2v8c0 1.1 0.9 2 2 2h1"/>
  <path fill="none" stroke="#E0E0E0" stroke-width="2" d="M286.9 77H283c-1.1 0-2 0.9-2 2v8c0 1.1 0.9 2 2 2h8c1.1 0 2-0.9 2-2v-3.1"/>
  <path fill="none" stroke="#E0E0E0" stroke-width="2" d="M297 79.4V87c0 1.1 0.9 2 2 2h8c1.1 0 2-0.9 2-2v-8c0-1.1-0.9-2-2-2h-7.2"/>
  <path fill="none" stroke="#E0E0E0" stroke-width="2" d="M315 77h8c1.1 0 2 0.9 2 2v8c0 1.1-0.9 2-2 2h-8c-1.1 0-2-0.9-2-2v-8C313 77.9 313.9 77 315 77z"/>
  <path fill="none" stroke="#E0E0E0" stroke-width="2" d="M235 93h8c1.1 0 2 0.9 2 2v8c0 1.1-0.9 2-2 2h-8c-1.1 0-2-0.9-2-2v-8C233 93.9 233.9 93 235 93z"/>
  <path fill="none" stroke="#E0E0E0" stroke-width="2" d="M251 93h8c1.1 0 2 0.9 2 2v8c0 1.1-0.9 2-2 2h-8c-1.1 0-2-0.9-2-2v-8C249 93.9 249.9 93 251 93z"/>
  <path fill="none" stroke="#E0E0E0" stroke-width="2" d="M267 93h8c1.1 0 2 0.9 2 2v8c0 1.1-0.9 2-2 2h-8c-1.1 0-2-0.9-2-2v-8C265 93.9 265.9 93 267 93z"/>
  <path fill="none" stroke="#E0E0E0" stroke-width="2" d="M283 93h8c1.1 0 2 0.9 2 2v8c0 1.1-0.9 2-2 2h-8c-1.1 0-2-0.9-2-2v-8C281 93.9 281.9 93 283 93z"/>
  <path fill="none" stroke="#E0E0E0" stroke-width="2" d="M299 93h8c1.1 0 2 0.9 2 2v8c0 1.1-0.9 2-2 2h-8c-1.1 0-2-0.9-2-2v-8C297 93.9 297.9 93 299 93z"/>
  <path fill="none" stroke="#E0E0E0" stroke-width="2" d="M315 93h8c1.1 0 2 0.9 2 2v8c0 1.1-0.9 2-2 2h-8c-1.1 0-2-0.9-2-2v-8C313 93.9 313.9 93 315 93z"/>
  <path fill="none" stroke="#E0E0E0" stroke-width="2" d="M235 109h8c1.1 0 2 0.9 2 2v8c0 1.1-0.9 2-2 2h-8c-1.1 0-2-0.9-2-2v-8C233 109.9 233.9 109 235 109z"/>
  <path fill="none" stroke="#E0E0E0" stroke-width="2" d="M256.8 121H251c-1.1 0-2-0.9-2-2v-8c0-1.1 0.9-2 2-2h3"/>
  <path fill="none" stroke="#E0E0E0" stroke-width="2" d="M261 115.9"/>
  <path fill="none" stroke="#E0E0E0" stroke-width="2" d="M235 125h8c1.1 0 2 0.9 2 2v8c0 1.1-0.9 2-2 2h-8c-1.1 0-2-0.9-2-2v-8C233 125.9 233.9 125 235 125z"/>
  <path fill="none" stroke="#E0E0E0" stroke-width="2" d="M257 137h-6c-1.1 0-2-0.9-2-2v-8c0-1.1 0.9-2 2-2h6"/>
  <path fill="none" stroke="#E0E0E0" stroke-width="2" d="M235 141h8c1.1 0 2 0.9 2 2v8c0 1.1-0.9 2-2 2h-8c-1.1 0-2-0.9-2-2v-8C233 141.9 233.9 141 235 141z"/>
  <path fill="none" stroke="#E0E0E0" stroke-width="2" d="M257 153h-6c-1.1 0-2-0.9-2-2v-8c0-1.1 0.9-2 2-2h6"/>
  <path fill="none" stroke="#E0E0E0" stroke-width="2" d="M235 157h8c1.1 0 2 0.9 2 2v8c0 1.1-0.9 2-2 2h-8c-1.1 0-2-0.9-2-2v-8C233 157.9 233.9 157 235 157z"/>
  <path fill="none" stroke="#E0E0E0" stroke-width="2" d="M252 169h-1c-1.1 0-2-0.9-2-2v-8c0-1.1 0.9-2 2-2h5"/>
  <path fill="none" stroke="#E0E0E0" stroke-width="2" d="M235 173h8c1.1 0 2 0.9 2 2v8c0 1.1-0.9 2-2 2h-8c-1.1 0-2-0.9-2-2v-8C233 173.9 233.9 173 235 173z"/>
  <path fill="none" stroke="#E0E0E0" stroke-width="2" d="M258 185h-7c-1.1 0-2-0.9-2-2v-8c0-1.1 0.9-2 2-2h3"/>
  <path fill="none" stroke="#E0E0E0" stroke-width="2" stroke-linecap="round" stroke-linejoin="round" d="M1 195h412"/>
  <path fill="none" stroke="#E0E0E0" stroke-width="2" stroke-linecap="round" stroke-linejoin="round" d="M122.1 163.9c-10-15.3-27.3-25.3-47-25.3-4.9 0-9.7 0.6-14.3 1.8"/>
  <path fill="none" stroke="#E0E0E0" stroke-width="2" stroke-linecap="round" stroke-linejoin="round" d="M27.2 165.1c-5.5 9-8.3 19.4-8.3 29.9"/>
  <path fill="none" stroke="#E0E0E0" stroke-width="2" stroke-linecap="round" stroke-linejoin="round" d="M38.7 151.8c-3.3 2.8-6.3 5.9-8.8 9.4"/>
  <path fill="none" stroke="#E0E0E0" stroke-width="2" stroke-linecap="round" stroke-linejoin="round" d="M136.4 167c-15.6-6.9-34.8-1.4-42.1 14.6-1.9 4.2-2.9 8.8-2.9 13.4 13.3 0 26.6 0 40 0 1.9 0 3.7 0 5.6 0"/>
  <polyline fill="none" stroke="#5CB8E6" stroke-width="2" points="331 195 403 195 403 68 329 68 329 106.2 "/>
  <path fill="none" stroke="#5CB8E6" stroke-width="2" stroke-linecap="round" stroke-linejoin="round" d="M328 46h76c1.7 0 3 1.3 3 3v16c0 1.7-1.3 3-3 3h-76c-1.7 0-3-1.3-3-3V49C325 47.3 326.3 46 328 46z"/>
  <path fill="none" stroke="#5CB8E6" stroke-width="2" d="M343 151h46c1.1 0 2 0.9 2 2v29c0 1.1-0.9 2-2 2h-46c-1.1 0-2-0.9-2-2v-29C341 151.9 341.9 151 343 151z"/>
  <path fill="none" stroke="#5CB8E6" stroke-width="2" d="M371 126h18c1.1 0 2 0.9 2 2v14c0 1.1-0.9 2-2 2h-18c-1.1 0-2-0.9-2-2v-14C369 126.9 369.9 126 371 126z"/>
  <path fill="none" stroke="#5CB8E6" stroke-width="2" d="M343 126h18c1.1 0 2 0.9 2 2v14c0 1.1-0.9 2-2 2h-18c-1.1 0-2-0.9-2-2v-14C341 126.9 341.9 126 343 126z"/>
  <path fill="none" stroke="#5CB8E6" stroke-width="2" d="M371 102h18c1.1 0 2 0.9 2 2v14c0 1.1-0.9 2-2 2h-18c-1.1 0-2-0.9-2-2v-14C369 102.9 369.9 102 371 102z"/>
  <path fill="none" stroke="#5CB8E6" stroke-width="2" d="M343 102h18c1.1 0 2 0.9 2 2v14c0 1.1-0.9 2-2 2h-18c-1.1 0-2-0.9-2-2v-14C341 102.9 341.9 102 343 102z"/>
  <path fill="none" stroke="#5CB8E6" stroke-width="2" d="M371 78h18c1.1 0 2 0.9 2 2v14c0 1.1-0.9 2-2 2h-18c-1.1 0-2-0.9-2-2V80C369 78.9 369.9 78 371 78z"/>
  <path fill="none" stroke="#5CB8E6" stroke-width="2" d="M343 78h18c1.1 0 2 0.9 2 2v14c0 1.1-0.9 2-2 2h-18c-1.1 0-2-0.9-2-2V80C341 78.9 341.9 78 343 78z"/>
  <polyline fill="none" stroke="#5CB8E6" stroke-width="1.9798" points="257 176 257 195 331 195 331 176.2 "/>
  <path fill="none" stroke="#5CB8E6" stroke-width="1.9798" d="M257 176"/>
  <path fill="none" stroke="#5CB8E6" stroke-width="1.9798" d="M257 154"/>
  <polyline fill="none" stroke="#5CB8E6" stroke-width="1.9798" points="331 151 331 116 257 116 257 151 "/>
  <path fill="none" stroke="#5CB8E6" stroke-width="2" d="M255 106h78c1.1 0 2 0.9 2 2v6c0 1.1-0.9 2-2 2h-78c-1.1 0-2-0.9-2-2v-6C253 106.9 253.9 106 255 106z"/>
  <path fill="none" stroke="#5CB8E6" stroke-width="2" d="M319 179v5c0 1.1-0.9 2-2 2h-18c-1.1 0-2-0.9-2-2v-5"/>
  <polyline fill="none" stroke="#5CB8E6" stroke-width="2" points="291 179 291 195 269 195 269 179 "/>
  <path fill="none" stroke="#5CB8E6" stroke-width="2" d="M299 126h18c1.1 0 2 0.9 2 2v14c0 1.1-0.9 2-2 2h-18c-1.1 0-2-0.9-2-2v-14C297 126.9 297.9 126 299 126z"/>
  <path fill="none" stroke="#5CB8E6" stroke-width="2" d="M271 126h18c1.1 0 2 0.9 2 2v14c0 1.1-0.9 2-2 2h-18c-1.1 0-2-0.9-2-2v-14C269 126.9 269.9 126 271 126z"/>
  <path fill="none" stroke="#5CB8E6" stroke-width="2" stroke-linecap="round" stroke-linejoin="round" d="M308 165c0 7.7 6.3 14 14 14l0 0c7.7 0 14-6.3 14-14l-5-14-74 0.1-5 13.8v0.1c0 7.7 6.3 14 14 14l0 0c7.7 0 14-6.3 14-14 0 7.7 6.3 14 14 14l0 0C301.7 179 308 172.7 308 165z"/>
  <path fill="none" stroke="#5CB8E6" stroke-width="2" stroke-linecap="round" stroke-linejoin="round" d="M281.5 156.5l1-5"/>
  <path fill="none" stroke="#5CB8E6" stroke-width="2" stroke-linecap="round" stroke-linejoin="round" d="M306.5 156.5l-1-5"/>
  <path fill="none" stroke="#5CB8E6" stroke-width="2" d="M160.1 181.2c0 0.9-0.7 1.6-1.6 1.6-0.9 0-1.6-0.7-1.6-1.6 0-0.9 0.7-1.6 1.6-1.6C159.4 179.6 160.1 180.3 160.1 181.2"/>
  <path fill="none" stroke="#5CB8E6" stroke-width="1.9959" d="M205 158.3V195h-68v-37"/>
  <path fill="none" stroke="#5CB8E6" stroke-width="2" d="M149 166h13c1.1 0 2 0.9 2 2v27h-17v-27C147 166.9 147.9 166 149 166z"/>
  <path fill="#5CB8E6" d="M193.1 170c0.4 0 0.9 0.2 0.9 0.8v9.2c0 0.5-0.4 1-0.9 1h-22c-0.5 0-1.1-0.5-1.1-1v-9.2c0-0.5 0.5-0.8 1.1-0.8H193.1M193.1 168h-22c-1.6 0-3.1 1.2-3.1 2.8v9.2c0 1.6 1.4 3 3.1 3h22c1.6 0 2.9-1.4 2.9-3v-9.2C196 169.2 194.7 168 193.1 168L193.1 168z"/>
  <path fill="none" stroke="#5CB8E6" stroke-width="2" stroke-linecap="round" stroke-linejoin="round" d="M209 154c-1.2 3.1-4.1 5.4-7.6 5.4-3.4 0-6.4-2.2-7.6-5.4-1.2 3.1-4.2 5.4-7.6 5.4-3.4 0-6.4-2.2-7.6-5.4-1.2 3.1-4.2 5.4-7.6 5.4-3.4 0-6.4-2.2-7.6-5.4-1.2 3.1-4.2 5.4-7.6 5.4-3.4 0-6.4-2.2-7.6-5.4-1.2 3.1-4.2 5.4-7.6 5.4-3.4 0-6.4-2.2-7.6-5.4v0l4-15.9h68L209 154 209 154z"/>
  <path fill="none" stroke="#5CB8E6" stroke-width="2" stroke-linecap="round" stroke-linejoin="round" d="M190.9 138.6l3.2 10.6L190.9 138.6z"/>
  <path fill="none" stroke="#5CB8E6" stroke-width="2" stroke-linecap="round" stroke-linejoin="round" d="M177.6 138.6l1.1 10.6L177.6 138.6z"/>
  <path fill="none" stroke="#5CB8E6" stroke-width="2" stroke-linecap="round" stroke-linejoin="round" d="M164.9 138.6l-1.1 10.6L164.9 138.6z"/>
  <path fill="none" stroke="#5CB8E6" stroke-width="2" stroke-linecap="round" stroke-linejoin="round" d="M151.6 138.6l-3.2 10.6L151.6 138.6z"/>
  <path fill="none" stroke="#5CB8E6" stroke-width="2" stroke-linecap="round" stroke-linejoin="round" d="M134.4 106.6c-1-0.3-1.6-1.3-1.3-2.3 0.3-1 1.3-1.6 2.3-1.3l72.3 19.7c1 0.3 1.6 1.3 1.3 2.3-0.3 1-1.3 1.6-2.3 1.3L134.4 106.6 134.4 106.6z"/>
  <path fill="none" stroke="#5CB8E6" stroke-width="2" stroke-linecap="round" stroke-linejoin="round" d="M137 107.2V138 107.2z"/>
  <path fill="none" stroke="#5CB8E6" stroke-width="2" stroke-linecap="round" stroke-linejoin="round" d="M205 138.1v-12.2V138.1z"/>
  <path fill="none" stroke="#5CB8E6" stroke-width="2" stroke-linecap="round" stroke-linejoin="round" d="M159.6 125.3c0 3.8-3.1 6.9-6.9 6.9s-6.9-3.1-6.9-6.9c0-3.8 3.1-6.9 6.9-6.9S159.6 121.5 159.6 125.3L159.6 125.3z"/>
  <path fill="none" stroke="#5CB8E6" stroke-width="2.0261" stroke-linecap="round" stroke-linejoin="round" d="M188 117V111c0-1.6 1.4-3 3-3h6c1.7 0 3 1.3 3 3v9.3"/>
  <path fill="none" stroke="#5CB8E6" stroke-width="2" stroke-linejoin="round" d="M70 167v10M52 187H31.8c-1.6 0-2.8-1.3-2.8-2.9V167"/>
  <path fill="none" stroke="#5CB8E6" stroke-width="2" stroke-linecap="round" stroke-linejoin="round" d="M20.8 167c1.2 0 2.2-0.9 2.2-2s-1-2-2.2-2h-1.5c-1.2 0-2.2 0.9-2.2 2s1 2 2.2 2H20.8L20.8 167zM23 165h4H23zM68.9 167c1.2 0 2.1-0.9 2.1-2s-1-2-2.1-2H29.1c-1.2 0-2.1 0.9-2.1 2s1 2 2.1 2H68.9L68.9 167z"/>
  <path fill="none" stroke="#5CB8E6" stroke-width="2" stroke-linecap="round" stroke-linejoin="round" d="M21 167c1.2 0 2-0.9 2-2s-0.8-2-2-2h-2c-1.2 0-2 0.9-2 2s0.8 2 2 2h1.8H21zM23 165h4H23zM69 167c1.2 0 2-0.9 2-2s-0.8-2-2-2H29c-1.2 0-2 0.9-2 2s0.8 2 2 2h39.9H69z"/>
  <path fill="none" stroke="#5CB8E6" stroke-width="2" stroke-linecap="round" stroke-linejoin="round" d="M50.9 139h-3.5c-8.8 0.5-16.5 5-21.4 11.8 0.1 0.1 0.1 0.1 0.2 0.2 0.9 2.4 3.1 4 5.7 4 2.6 0 4.8-1.7 5.7-4 0.9 2.4 3.1 4 5.7 4 2.6 0 4.8-1.7 5.7-4 0.9 2.4 3.1 4 5.7 4 2.6 0 4.8-1.7 5.7-4 0.9 2.4 3.1 4 5.7 4s4.8-1.7 5.7-4l0.3-0.5C67.1 143.9 59.5 139.5 50.9 139L50.9 139zM49 151v12V151zM34 193c0 1.1-0.9 2-2 2s-2-0.9-2-2 0.9-2 2-2S34 191.9 34 193L34 193zM32 187v3V187zM73 184.5c0 5.8-4.7 10.5-10.5 10.5S52 190.3 52 184.5 56.7 174 62.5 174 73 178.7 73 184.5L73 184.5zM69 184.5c0 3.6-2.9 6.5-6.5 6.5-3.6 0-6.5-2.9-6.5-6.5s2.9-6.5 6.5-6.5C66.1 178 69 180.9 69 184.5L69 184.5z"/>
  <path fill="#5CB8E6" d="M62.5 183c-0.8 0-1.5 0.7-1.5 1.5 0 0.8 0.7 1.5 1.5 1.5 0.8 0 1.5-0.7 1.5-1.5C64 183.7 63.3 183 62.5 183"/>
  <path fill="none" stroke="#5CB8E6" stroke-width="2" stroke-linecap="round" stroke-linejoin="round" d="M303.5 66.2c0-5.6-4.6-10.2-10.2-10.2S283 60.6 283 66.2c0 0-0.4 7.5 10.2 17.7C303.9 73.7 303.5 66.2 303.5 66.2L303.5 66.2z"/>
  <path fill="none" stroke="#5CB8E6" stroke-width="2" stroke-linecap="round" stroke-linejoin="round" d="M293.2 71.8c-3.1 0-5.7-2.5-5.7-5.6 0-3.1 2.5-5.6 5.7-5.6 3.1 0 5.7 2.5 5.7 5.6C298.9 69.3 296.4 71.8 293.2 71.8L293.2 71.8z"/>
  <path fill="none" stroke="#5CB8E6" stroke-width="2" stroke-linecap="round" stroke-linejoin="round" d="M182.5 72.2c0-5.6-4.6-10.2-10.2-10.2S162 66.6 162 72.2c0 0-0.4 7.5 10.2 17.7C182.9 79.7 182.5 72.2 182.5 72.2L182.5 72.2zM172.2 77.8c-3.1 0-5.7-2.5-5.7-5.6 0-3.1 2.5-5.6 5.7-5.6 3.1 0 5.7 2.5 5.7 5.6C177.9 75.3 175.4 77.8 172.2 77.8L172.2 77.8z"/>
  <path fill="none" stroke="#5CB8E6" stroke-width="2" stroke-linecap="round" stroke-linejoin="round" d="M57.5 101.2c0-5.6-4.6-10.2-10.2-10.2C41.6 91 37 95.6 37 101.2c0 0-0.4 7.5 10.2 17.7C57.9 108.7 57.5 101.2 57.5 101.2L57.5 101.2zM47.2 106.8c-3.1 0-5.7-2.5-5.7-5.6 0-3.1 2.5-5.6 5.7-5.6s5.7 2.5 5.7 5.6C52.9 104.3 50.4 106.8 47.2 106.8L47.2 106.8z"/>
</svg>