<svg xmlns="http://www.w3.org/2000/svg" viewBox="0 0 68 68" width="68" height="68">
  <path fill="none" stroke="#2E3B4E" stroke-width="2" stroke-linecap="round" stroke-linejoin="round" d="M22 49h24"/>
  <path fill="none" stroke="#2E3B4E" stroke-width="2" stroke-linecap="round" stroke-linejoin="round" d="M22 37h24"/>
  <path fill="none" stroke="#2E3B4E" stroke-width="2" stroke-linecap="round" stroke-linejoin="round" d="M22 43h24"/>
  <path fill="none" stroke="#2E3B4E" stroke-width="2" stroke-linecap="round" stroke-linejoin="round" d="M49 13H19c-1.6 0-3 1.3-3 3v37c0 1.6 1.4 3 3 3h30c1.7 0 3-1.4 3-3V16C52 14.3 50.7 13 49 13z"/>
  <path fill="none" stroke="#2E3B4E" stroke-width="2" stroke-linecap="round" stroke-linejoin="round" d="M67 34c0 18.2-14.8 33-33 33S1 52.2 1 34 15.8 1 34 1 67 15.8 67 34L67 34z"/>
  <path fill="none" stroke="#2E3B4E" stroke-width="2" stroke-linecap="round" stroke-linejoin="round" d="M29 30l-4-4 4-4"/>
  <path fill="none" stroke="#2E3B4E" stroke-width="2" stroke-linecap="round" stroke-linejoin="round" d="M32 31l4-10"/>
  <path fill="none" stroke="#2E3B4E" stroke-width="2" stroke-linecap="round" stroke-linejoin="round" d="M39 22l4 4 -4 4"/>
</svg>