<svg xmlns="http://www.w3.org/2000/svg" viewBox="0 0 68 68" width="68" height="68">
  <path fill="none" stroke="#2E3B4E" stroke-width="2" stroke-linecap="round" stroke-linejoin="round" stroke-miterlimit="10" d="M26,52H15.5c-0.8,0-1.5-0.7-1.5-1.5v-7.1c0-0.8,0.7-1.4,1.5-1.4H26"/>
  <polyline fill="none" stroke="#2E3B4E" stroke-width="2" stroke-linecap="round" stroke-linejoin="round" stroke-miterlimit="10" points="16,42 16,38 18,39 20,38 22,39 24,38 26,39 28,38 28,42"/>
  <polyline fill="none" stroke="#2E3B4E" stroke-width="2" stroke-linecap="round" stroke-linejoin="round" stroke-miterlimit="10" points="41,34 41,38 34,38 34,34"/>
  <path fill="none" stroke="#2E3B4E" stroke-width="2" stroke-linecap="round" stroke-linejoin="round" stroke-miterlimit="10" d="M50.2,52H25.8c-1,0-1.8-0.8-1.8-1.8v-6.4c0-1,0.8-1.8,1.8-1.8h24.4c1,0,1.8,0.8,1.8,1.8v6.4C52,51.2,51.2,52,50.2,52z"/>
  <path fill="none" stroke="#2E3B4E" stroke-width="2" stroke-linecap="round" stroke-linejoin="round" stroke-miterlimit="10" d="M48.2,34H26.8c-1,0-1.8-0.8-1.8-1.8V16.8c0-1,0.8-1.8,1.8-1.8h21.4c1,0,1.8,0.8,1.8,1.8v15.4C50,33.2,49.2,34,48.2,34z"/>
  <line fill="none" stroke="#2E3B4E" stroke-width="2" stroke-linecap="round" stroke-linejoin="round" stroke-miterlimit="10" x1="28" y1="47" x2="33" y2="47"/>
  <line fill="none" stroke="#2E3B4E" stroke-width="2" stroke-linecap="round" stroke-linejoin="round" stroke-miterlimit="10" x1="43" y1="47" x2="48" y2="47"/>
  <circle fill="#2E3B4E" cx="38" cy="47" r="2"/>
  <polygon fill="none" stroke="#2E3B4E" stroke-width="2" stroke-linecap="round" stroke-linejoin="round" stroke-miterlimit="10" points="46,30 29,30 29,19 46,19"/>
  <circle fill="none" stroke="#2E3B4E" stroke-width="2" stroke-linecap="round" stroke-linejoin="round" stroke-miterlimit="10" cx="34" cy="34" r="33"/>
  <polyline fill="none" stroke="#2E3B4E" stroke-width="2" stroke-linecap="round" stroke-linejoin="round" stroke-miterlimit="10" points="32,42 32,38 43,38 43,42"/>
</svg>