<svg xmlns="http://www.w3.org/2000/svg" viewBox="0 0 80 80" width="80" height="80">
  <path fill="none" stroke="#2E3B4E" stroke-width="2" stroke-miterlimit="10" d="M38.3,78.5C39.1,78.8,40,79,41,79h30 c4.4,0,8-3.6,8-8V9c0-4.4-3.6-8-8-8H41c-4.4,0-8,3.6-8,8"/>
  <path fill="none" stroke="#2E3B4E" stroke-width="2" stroke-miterlimit="10" d="M36.2,9c2.6,0,4.8,2.2,4.8,5v60c0,2.8-2.1,5-4.8,5 H5.8C3.1,79,1,76.7,1,74V14c0-2.8,2.1-5,4.8-5H36.2z"/>
  <line fill="none" stroke="#2E3B4E" stroke-width="2" stroke-linejoin="round" stroke-miterlimit="10" x1="41.2" y1="21" x2="1.4" y2="21"/>
  <line fill="none" stroke="#2E3B4E" stroke-width="2" stroke-linejoin="round" stroke-miterlimit="10" x1="41" y1="67" x2="1" y2="67"/>
  <line fill="none" stroke="#2E3B4E" stroke-width="2" stroke-linecap="round" stroke-linejoin="round" stroke-miterlimit="10" x1="19" y1="15" x2="25" y2="15"/>
  <circle fill="#2E3B4E" cx="21" cy="73" r="2"/>
  <line fill="none" stroke="#2E3B4E" stroke-width="2" stroke-miterlimit="10" x1="79" y1="11" x2="40" y2="11"/>
  <line fill="none" stroke="#2E3B4E" stroke-width="2" stroke-miterlimit="10" x1="79" y1="69" x2="41" y2="69"/>
  <line fill="none" stroke="#2E3B4E" stroke-width="2" stroke-linecap="round" stroke-linejoin="round" stroke-miterlimit="10" x1="51" y1="74" x2="61" y2="74"/>
</svg>