<svg xmlns="http://www.w3.org/2000/svg" viewBox="0 0 32 32" width="32" height="32">
  <path fill="none" stroke="#2E3B4E" stroke-width="2" stroke-linecap="round" stroke-linejoin="round" stroke-miterlimit="10" d="M6.6,22.5l-4.3,4.3c-1.2,1.2-1.6,2-0.4,3.2l0,0c1.2,1.2,2,0.8,3.2-0.3l4.3-4.3"/>
  <path fill="none" stroke="#2E3B4E" stroke-width="2" stroke-linecap="round" stroke-linejoin="round" stroke-miterlimit="10" d="M20.8,25.4c-2,2-3.7,2-5.7,0l-8.5-8.5c-2-2-2-3.7,0-5.7l8.5-8.5c2-2,3.7-2,5.7,0l8.5,8.5c2,2,2,3.7,0,5.7L20.8,25.4z"/>
  <polygon fill="none" stroke="#2E3B4E" stroke-width="2" stroke-linecap="round" stroke-linejoin="round" stroke-miterlimit="10" points="18,19.7 12.3,14 18,8.4 23.6,14.1"/>
  <polyline fill="none" stroke="#2E3B4E" stroke-width="2" stroke-linecap="round" stroke-linejoin="round" stroke-miterlimit="10" points="13.7,24 10.9,26.8 5.2,21.1 8.0,18.3"/>
  <line fill="none" stroke="#2E3B4E" stroke-width="2" stroke-linecap="round" stroke-linejoin="round" stroke-miterlimit="10" x1="6.6" y1="28.2" x2="3.8" y2="25.4"/>
</svg>