<svg xmlns="http://www.w3.org/2000/svg" viewBox="0 0 20 20" width="20" height="20">
  <path fill="#2E3B4E" d="M16.4,6.6c0,0.2,0,0.3,0,0.5c0,4.8-3.3,10.1-9.3,10.1c-1.9,0-3.6-0.4-5-1.4c0.3,0,0.5,0.1,0.8,0.1 c1.5,0,3-0.6,4.1-1.6c-1.4,0-2.6-1.1-3.1-2.5c0.2,0,0.4,0.1,0.6,0.1c0.3,0,0.7,0,1-0.1C3.9,11.4,3,9.9,3,8.1c0,0,0,0,0,0 c0,0.3,0.7,0.4,1.2,0.5c-0.9-0.7-1.4-1.8-1.4-3c0-0.7,0.1-1.3,0.4-1.8c1.6,2.2,3.9,3.6,6.6,3.8C9.8,7.2,9.8,6.9,9.8,6.7 c0-2,1.5-3.9,3.3-3.9c0.9,0,1.8,0.7,2.4,1.4c0.7-0.2,1.4-0.5,2.1-0.9c-0.2,0.8-0.8,1.6-1.4,2C16.8,5.2,17.4,5,18,4.7 C17.6,5.5,17,6.1,16.4,6.6z"/>
</svg>