<svg xmlns="http://www.w3.org/2000/svg" viewBox="0 0 32 32" width="32" height="32">
  <path fill="none" stroke="#2E3B4E" stroke-width="2" stroke-linejoin="round" stroke-miterlimit="10" d="M26,30c2.8,0,4-1.2,4-4V6 c0-2.8-1.2-4-4-4H6C3.2,2,2,3.2,2,6v20c0,2.8,1.2,4,4,4H26z"/>
  <path fill="none" stroke="#2E3B4E" stroke-width="2" stroke-linecap="round" stroke-linejoin="round" stroke-miterlimit="10" d="M17,18.5c0,0,1-0.5,1-2.5c0-2-1-2.5-1-2.5"/>
  <path fill="none" stroke="#2E3B4E" stroke-width="2" stroke-linecap="round" stroke-linejoin="round" stroke-miterlimit="10" d="M13.5,14.5c0,0,0.5,0.5,0.5,1.5s-0.5,1.5-0.5,1.5"/>
  <polygon fill="none" stroke="#2E3B4E" stroke-width="2" stroke-linecap="round" stroke-linejoin="round" stroke-miterlimit="10" points="23,23 9,23 9,9 23,9"/>
</svg>