<svg xmlns="http://www.w3.org/2000/svg" viewBox="0 0 32 32" width="32" height="32">
  <path fill="none" stroke="#2E3B4E" stroke-width="2" stroke-linecap="round" stroke-linejoin="round" stroke-miterlimit="10" d="M13,31H2.5C1.7,31,1,30.3,1,29.5v-7.1C1,21.6,1.7,21,2.5,21H13"/>
  <polyline fill="none" stroke="#2E3B4E" stroke-width="2" stroke-linecap="round" stroke-linejoin="round" stroke-miterlimit="10" points="3,21 3,17 5,18 8,17 9,18 11,17 11,21"/>
  <path fill="none" stroke="#2E3B4E" stroke-width="2" stroke-linecap="round" stroke-linejoin="round" stroke-miterlimit="10" d="M29.2,31H8.8c-1,0-1.8-0.9-1.8-1.8v-6.4c0-1,0.8-1.8,1.8-1.8h20.4c1,0,1.8,0.8,1.8,1.8v6.4C31,30.1,30.2,31,29.2,31z"/>
  <path fill="none" stroke="#2E3B4E" stroke-width="2" stroke-linecap="round" stroke-linejoin="round" stroke-miterlimit="10" d="M27.2,17H10.8c-1,0-1.8-0.8-1.8-1.8V2.8C9,1.8,9.8,1,10.8,1h16.4c1,0,1.8,0.8,1.8,1.8v12.4C29,16.2,28.2,17,27.2,17z"/>
  <line fill="none" stroke="#2E3B4E" stroke-width="2" stroke-linecap="round" stroke-linejoin="round" stroke-miterlimit="10" x1="11" y1="26" x2="15" y2="26"/>
  <line fill="none" stroke="#2E3B4E" stroke-width="2" stroke-linecap="round" stroke-linejoin="round" stroke-miterlimit="10" x1="23" y1="26" x2="27" y2="26"/>
  <circle fill="#2E3B4E" cx="19" cy="26" r="1"/>
  <polygon fill="none" stroke="#2E3B4E" stroke-width="2" stroke-linecap="round" stroke-linejoin="round" stroke-miterlimit="10" points="25,13 13,13 13,5 25,5"/>
  <polygon fill="none" stroke="#2E3B4E" stroke-width="2" stroke-linecap="round" stroke-linejoin="round" stroke-miterlimit="10" points="15,17 15,21 23,21 23,17"/>
</svg>