<svg xmlns="http://www.w3.org/2000/svg" viewBox="0 0 80 80" width="80" height="80">
  <line fill="none" stroke="#2E3B4E" stroke-width="2" stroke-linecap="round" stroke-linejoin="round" stroke-miterlimit="10" x1="18.9" y1="46" x2="9.7" y2="36.8"/>
  <path fill="none" stroke="#2E3B4E" stroke-width="2" stroke-linecap="round" stroke-linejoin="round" stroke-miterlimit="10" d="M21.2,53.7c-1.4,1.4-3.6,1.4-4.9,0c-1.4-1.4-1.3-3.7,0.1-5l5.4-5.4"/>
  <path fill="none" stroke="#2E3B4E" stroke-width="2" stroke-linecap="round" stroke-linejoin="round" stroke-miterlimit="10" d="M26.2,58.6c-1.4,1.4-3.6,1.4-4.9,0c-1.4-1.4-1.3-3.7,0.1-5l5.4-5.4"/>
  <path fill="none" stroke="#2E3B4E" stroke-width="2" stroke-linecap="round" stroke-linejoin="round" stroke-miterlimit="10" d="M31.2,63.6c-1.4,1.4-3.6,1.4-4.9,0c-1.4-1.4-1.3-3.7,0.1-5l5.4-5.4"/>
  <path fill="none" stroke="#2E3B4E" stroke-width="2" stroke-linecap="round" stroke-linejoin="round" stroke-miterlimit="10" d="M21.8,43.2c1.4-1.4,3.6-1.4,5,0c1.4,1.4,1.4,3.6,0,5"/>
  <path fill="none" stroke="#2E3B4E" stroke-width="2" stroke-linecap="round" stroke-linejoin="round" stroke-miterlimit="10" d="M26.8,48.2c1.4-1.4,3.6-1.4,5,0c1.4,1.4,1.4,3.6,0,5"/>
  <path fill="none" stroke="#2E3B4E" stroke-width="2" stroke-linecap="round" stroke-linejoin="round" stroke-miterlimit="10" d="M31.7,53.1c1.4-1.4,3.6-1.4,5,0c1.4,1.4,1.4,3.6,0,5"/>
  <path fill="none" stroke="#2E3B4E" stroke-width="2" stroke-linecap="round" stroke-linejoin="round" stroke-miterlimit="10" d="M36.7,58.1c1.4-1.4,3.6-1.4,5,0c1.4,1.4,1.4,3.6,0,5l-5.5,5.5c-1.4,1.4-3.6,1.4-4.9,0c-1.4-1.4-1.3-3.7,0.1-5L36.7,58.1"/>
  <path fill="none" stroke="#2E3B4E" stroke-width="2" stroke-linecap="round" stroke-linejoin="round" stroke-miterlimit="10" d="M49.9,67c1.4,1.4,1.4,3.6,0,4.9c-1.4,1.4-3.7,1.3-5-0.1l-6-6"/>
  <path fill="none" stroke="#2E3B4E" stroke-width="2" stroke-linecap="round" stroke-linejoin="round" stroke-miterlimit="10" d="M54.9,62.1c1.4,1.4,1.4,3.6,0,4.9c-1.4,1.4-3.7,1.3-5-0.1l-3.7-3.7"/>
  <path fill="none" stroke="#2E3B4E" stroke-width="2" stroke-linecap="round" stroke-linejoin="round" stroke-miterlimit="10" d="M59.9,57.1c1.4,1.4,1.4,3.6,0,4.9c-1.4,1.4-3.7,1.3-5-0.1l-4-4"/>
  <path fill="none" stroke="#2E3B4E" stroke-width="2" stroke-linecap="round" stroke-linejoin="round" stroke-miterlimit="10" d="M55.8,53"/>
  <path fill="none" stroke="#2E3B4E" stroke-width="2" stroke-linecap="round" stroke-linejoin="round" stroke-miterlimit="10" d="M33.7,12.7l-27,27L1,34.1L28,7L33.7,12.7z"/>
  <path fill="none" stroke="#2E3B4E" stroke-width="2" stroke-linecap="round" stroke-linejoin="round" stroke-miterlimit="10" d="M73.3,39.2l-27-27L52,6.4l27,27L73.3,39.2z"/>
  <path fill="none" stroke="#2E3B4E" stroke-width="2" stroke-linecap="round" stroke-linejoin="round" stroke-miterlimit="10" d="M49.5,15.4c0,0-4.1,4.1-4.7,4.7c-0.6,0.6-3-0.4-5.6-0.6c-2.6-0.2-8.1,3.6-10.8,4.8c-2.7,1.2-2.6,2.8-1.6,4.3c1,1.5,5,2.6,10,1 c4-1.3,7.3,1.8,7.3,1.8L60.8,48l4.1,4.1c1.4,1.4,1.4,3.6,0,4.9c-1.4,1.4-3.7,1.3-5-0.1l-4-4"/>
  <line fill="none" stroke="#2E3B4E" stroke-width="2" stroke-linecap="round" stroke-linejoin="round" stroke-miterlimit="10" x1="58.8" y1="46" x2="69.5" y2="35.3"/>
  <line fill="none" stroke="#2E3B4E" stroke-width="2" stroke-linecap="round" stroke-linejoin="round" stroke-miterlimit="10" x1="29.6" y1="16.8" x2="34" y2="21.3"/>
</svg>