<svg version="1.1" id="Layer_1" xmlns="http://www.w3.org/2000/svg" xmlns:xlink="http://www.w3.org/1999/xlink" x="0px" y="0px" width="414px" height="196px" viewBox="0 0 414 196" enable-background="new 0 0 414 196" xml:space="preserve">
<g id="staff">
	<path fill="none" stroke="#E0E0E0" stroke-width="2" stroke-linecap="round" stroke-linejoin="round" stroke-miterlimit="10" d="&#10;&#9;&#9;M154.2,179.3c1.2-2.9,1.8-6,1.8-9.3c0-13.8-11.2-25-25-25s-25,11.2-25,25s11.2,25,25,25c5.2,0,10-1.6,13.9-4.2"/>
	<path fill="none" stroke="#E0E0E0" stroke-width="2" stroke-linecap="round" stroke-linejoin="round" stroke-miterlimit="10" d="&#10;&#9;&#9;M142,181c-2.4-3-6.2-5-10.5-5c-4.3,0-8.1,2-10.5,5"/>
	<path fill="none" stroke="#E0E0E0" stroke-width="2" stroke-linecap="round" stroke-linejoin="round" stroke-miterlimit="10" d="&#10;&#9;&#9;M139,165.3c0,4.1-3.5,7.7-7.7,7.7c-4.1,0-7.3-3.5-7.3-7.7c0-4.1,3.2-7.3,7.3-7.3C135.5,158,139,161.2,139,165.3z"/>
	<circle fill="none" stroke="#E0E0E0" stroke-width="2" stroke-miterlimit="10" cx="152" cy="187" r="8"/>
	<path fill="none" stroke="#E0E0E0" stroke-width="2" stroke-linecap="round" stroke-linejoin="round" stroke-miterlimit="10" d="&#10;&#9;&#9;M150,187v-2.2c0-1,0.9-1.8,2-1.8c1.1,0,2,0.8,2,1.8v2.2H150z M155,190.7c0,0.2-0.2,0.3-0.3,0.3h-5.3c-0.2,0-0.3-0.1-0.3-0.3v-3.3&#10;&#9;&#9;c0-0.2,0.1-0.3,0.3-0.3h5.3c0.2,0,0.3,0.1,0.3,0.3V190.7z"/>
	<path fill="none" stroke="#E0E0E0" stroke-width="2" stroke-linecap="round" stroke-linejoin="round" stroke-miterlimit="10" d="&#10;&#9;&#9;M238.2,179.3c1.2-2.9,1.8-6,1.8-9.3c0-13.8-11.2-25-25-25s-25,11.2-25,25s11.2,25,25,25c5.2,0,10-1.6,13.9-4.2"/>
	<path fill="none" stroke="#E0E0E0" stroke-width="2" stroke-linecap="round" stroke-linejoin="round" stroke-miterlimit="10" d="&#10;&#9;&#9;M226,181c-2.4-3-6.2-5-10.5-5c-4.3,0-8.1,2-10.5,5"/>
	<path fill="none" stroke="#E0E0E0" stroke-width="2" stroke-linecap="round" stroke-linejoin="round" stroke-miterlimit="10" d="&#10;&#9;&#9;M223,165.3c0,4.1-3.5,7.7-7.7,7.7c-4.1,0-7.3-3.5-7.3-7.7c0-4.1,3.2-7.3,7.3-7.3C219.5,158,223,161.2,223,165.3z"/>
	<circle fill="none" stroke="#E0E0E0" stroke-width="2" stroke-miterlimit="10" cx="236" cy="187" r="8"/>
	<path fill="none" stroke="#E0E0E0" stroke-width="2" stroke-linecap="round" stroke-linejoin="round" stroke-miterlimit="10" d="&#10;&#9;&#9;M234,187v-2.2c0-1,0.9-1.8,2-1.8c1.1,0,2,0.8,2,1.8v2.2H234z M239,190.7c0,0.2-0.2,0.3-0.3,0.3h-5.3c-0.2,0-0.3-0.1-0.3-0.3v-3.3&#10;&#9;&#9;c0-0.2,0.1-0.3,0.3-0.3h5.3c0.2,0,0.3,0.1,0.3,0.3V190.7z"/>
	<path fill="none" stroke="#E0E0E0" stroke-width="2" stroke-linecap="round" stroke-linejoin="round" stroke-miterlimit="10" d="&#10;&#9;&#9;M322.2,179.3c1.2-2.9,1.8-6,1.8-9.3c0-13.8-11.2-25-25-25s-25,11.2-25,25s11.2,25,25,25c5.2,0,10-1.6,13.9-4.2"/>
	<path fill="none" stroke="#E0E0E0" stroke-width="2" stroke-linecap="round" stroke-linejoin="round" stroke-miterlimit="10" d="&#10;&#9;&#9;M310,181c-2.4-3-6.2-5-10.5-5c-4.3,0-8.1,2-10.5,5"/>
	<path fill="none" stroke="#E0E0E0" stroke-width="2" stroke-linecap="round" stroke-linejoin="round" stroke-miterlimit="10" d="&#10;&#9;&#9;M307,165.3c0,4.1-3.5,7.7-7.7,7.7c-4.1,0-7.3-3.5-7.3-7.7c0-4.1,3.2-7.3,7.3-7.3C303.5,158,307,161.2,307,165.3z"/>
	<circle fill="none" stroke="#E0E0E0" stroke-width="2" stroke-miterlimit="10" cx="320" cy="187" r="8"/>
	<path fill="none" stroke="#E0E0E0" stroke-width="2" stroke-linecap="round" stroke-linejoin="round" stroke-miterlimit="10" d="&#10;&#9;&#9;M318,187v-2.2c0-1,0.9-1.8,2-1.8c1.1,0,2,0.8,2,1.8v2.2H318z M323,190.7c0,0.2-0.2,0.3-0.3,0.3h-5.3c-0.2,0-0.3-0.1-0.3-0.3v-3.3&#10;&#9;&#9;c0-0.2,0.1-0.3,0.3-0.3h5.3c0.2,0,0.3,0.1,0.3,0.3V190.7z"/>
	<path fill="none" stroke="#E0E0E0" stroke-width="2" stroke-linecap="round" stroke-linejoin="round" stroke-miterlimit="10" d="&#10;&#9;&#9;M407.2,179.3c1.2-2.9,1.8-6,1.8-9.3c0-13.8-11.2-25-25-25s-25,11.2-25,25s11.2,25,25,25c5.2,0,10-1.6,13.9-4.2"/>
	<path fill="none" stroke="#E0E0E0" stroke-width="2" stroke-linecap="round" stroke-linejoin="round" stroke-miterlimit="10" d="&#10;&#9;&#9;M395,181c-2.4-3-6.2-5-10.5-5c-4.3,0-8.1,2-10.5,5"/>
	<path fill="none" stroke="#E0E0E0" stroke-width="2" stroke-linecap="round" stroke-linejoin="round" stroke-miterlimit="10" d="&#10;&#9;&#9;M392,165.3c0,4.1-3.5,7.7-7.7,7.7c-4.1,0-7.3-3.5-7.3-7.7c0-4.1,3.2-7.3,7.3-7.3C388.5,158,392,161.2,392,165.3z"/>
	<circle fill="none" stroke="#E0E0E0" stroke-width="2" stroke-miterlimit="10" cx="405" cy="187" r="8"/>
	<path fill="none" stroke="#E0E0E0" stroke-width="2" stroke-linecap="round" stroke-linejoin="round" stroke-miterlimit="10" d="&#10;&#9;&#9;M403,187v-2.2c0-1,0.9-1.8,2-1.8c1.1,0,2,0.8,2,1.8v2.2H403z M408,190.7c0,0.2-0.2,0.3-0.3,0.3h-5.3c-0.2,0-0.3-0.1-0.3-0.3v-3.3&#10;&#9;&#9;c0-0.2,0.1-0.3,0.3-0.3h5.3c0.2,0,0.3,0.1,0.3,0.3V190.7z"/>
</g>
<g id="stafflines">
	
		<line fill="none" stroke="#E0E0E0" stroke-width="2" stroke-linecap="square" stroke-miterlimit="10" x1="299" y1="136" x2="299" y2="145"/>
	
		<line fill="none" stroke="#E0E0E0" stroke-width="2" stroke-linecap="square" stroke-miterlimit="10" x1="215" y1="136" x2="215" y2="145"/>
	<path fill="none" stroke="#E0E0E0" stroke-width="2" stroke-miterlimit="10" d="M385,144v-6c0-1.7-1.3-3-3-3H135c-1.7,0-3,1.3-3,3&#10;&#9;&#9;v6.1"/>
	
		<line fill="none" stroke="#E0E0E0" stroke-width="2" stroke-linecap="square" stroke-miterlimit="10" x1="255" y1="124" x2="255" y2="134"/>
</g>
<g id="manager">
	
		<circle fill="none" stroke="#5CB8E6" stroke-width="2" stroke-linecap="round" stroke-linejoin="round" stroke-miterlimit="10" cx="255" cy="98" r="25"/>
	<path fill="none" stroke="#5CB8E6" stroke-width="2" stroke-linecap="round" stroke-linejoin="round" stroke-miterlimit="10" d="&#10;&#9;&#9;M266,109c-2.4-3-6.2-5-10.5-5c-4.3,0-8.1,2-10.5,5"/>
	<path fill="none" stroke="#5CB8E6" stroke-width="2" stroke-linecap="round" stroke-linejoin="round" stroke-miterlimit="10" d="&#10;&#9;&#9;M263,93.3c0,4.1-3.5,7.7-7.7,7.7c-4.1,0-7.3-3.5-7.3-7.7s3.2-7.3,7.3-7.3C259.5,86,263,89.2,263,93.3z"/>
	
		<circle fill="none" stroke="#5CB8E6" stroke-width="2" stroke-linecap="round" stroke-linejoin="round" stroke-miterlimit="10" cx="26" cy="98" r="25"/>
	<path fill="none" stroke="#5CB8E6" stroke-width="2" stroke-linecap="round" stroke-linejoin="round" stroke-miterlimit="10" d="&#10;&#9;&#9;M37,109c-2.4-3-6.2-5-10.5-5s-8.1,2-10.5,5"/>
	<path fill="none" stroke="#5CB8E6" stroke-width="2" stroke-linecap="round" stroke-linejoin="round" stroke-miterlimit="10" d="&#10;&#9;&#9;M34,93.3c0,4.1-3.5,7.7-7.7,7.7c-4.1,0-7.3-3.5-7.3-7.7s3.2-7.3,7.3-7.3C30.5,86,34,89.2,34,93.3z"/>
	
		<circle fill="none" stroke="#5CB8E6" stroke-width="2" stroke-linecap="round" stroke-linejoin="round" stroke-miterlimit="10" cx="141" cy="26" r="25"/>
	<path fill="none" stroke="#5CB8E6" stroke-width="2" stroke-linecap="round" stroke-linejoin="round" stroke-miterlimit="10" d="&#10;&#9;&#9;M152,37c-2.4-3-6.2-5-10.5-5c-4.3,0-8.1,2-10.5,5"/>
	<path fill="none" stroke="#5CB8E6" stroke-width="2" stroke-linecap="round" stroke-linejoin="round" stroke-miterlimit="10" d="&#10;&#9;&#9;M149,21.3c0,4.1-3.5,7.7-7.7,7.7c-4.1,0-7.3-3.5-7.3-7.7c0-4.1,3.2-7.3,7.3-7.3C145.5,14,149,17.2,149,21.3z"/>
</g>
<g id="managerlines">
	<path fill="none" stroke="#5CB8E6" stroke-width="2" stroke-miterlimit="10" d="M256,73.9V63c0-1.7-1.4-3-3-3H29c-1.7,0-3,1.3-3,3&#10;&#9;&#9;v11"/>
	
		<line fill="none" stroke="#5CB8E6" stroke-width="2" stroke-linecap="square" stroke-miterlimit="10" x1="141" y1="51" x2="141" y2="59"/>
</g>
</svg>