<svg xmlns="http://www.w3.org/2000/svg" viewBox="0 0 80 80" width="80" height="80">
  <circle fill="#2E3B4E" cx="26" cy="67" r="2"/>
  <path fill="none" stroke="#2E3B4E" stroke-width="2" stroke-linecap="round" stroke-linejoin="round" stroke-miterlimit="10" d="M2.4,4.7c-1-0.3-1.6-1.3-1.3-2.3c0.3-1,1.3-1.6,2.3-1.3l74.2,20.2c1,0.3,1.6,1.3,1.3,2.3c-0.3,1-1.3,1.6-2.3,1.3L2.4,4.7z"/>
  <line fill="none" stroke="#2E3B4E" stroke-width="2" stroke-linecap="round" stroke-linejoin="round" stroke-miterlimit="10" x1="5" y1="5.4" x2="5" y2="37"/>
  <line fill="none" stroke="#2E3B4E" stroke-width="2" stroke-linecap="round" stroke-linejoin="round" stroke-miterlimit="10" x1="75" y1="37" x2="75" y2="24.5"/>
  <path fill="none" stroke="#2E3B4E" stroke-width="2" stroke-linecap="round" stroke-linejoin="round" stroke-miterlimit="10" d="M79,53.4c-1.2,3.3-4.3,5.5-7.8,5.5c-3.5,0-6.6-2.3-7.8-5.5c-1.2,3.3-4.3,5.5-7.8,5.5c-3.5,0-6.6-2.3-7.8-5.5 C46.6,56.7,43.5,59,40,59c-3.5,0-6.6-2.3-7.8-5.5C31,56.7,27.9,59,24.4,59c-3.5,0-6.6-2.3-7.8-5.5c-1.2,3.3-4.3,5.5-7.8,5.5 S2.2,56.7,1,53.4v0L5.1,37h69.8L79,53.4z"/>
  <line fill="none" stroke="#2E3B4E" stroke-width="2" stroke-linecap="round" stroke-linejoin="round" stroke-miterlimit="10" x1="15" y1="56.1" x2="15" y2="78.7"/>
  <line fill="none" stroke="#2E3B4E" stroke-width="2" stroke-linecap="round" stroke-linejoin="round" stroke-miterlimit="10" x1="31" y1="55.6" x2="31" y2="78.7"/>
  <circle fill="none" stroke="#2E3B4E" stroke-width="2" stroke-linecap="round" stroke-linejoin="round" stroke-miterlimit="10" cx="21" cy="24" r="7"/>
  <line fill="none" stroke="#2E3B4E" stroke-width="2" stroke-linecap="round" stroke-linejoin="round" stroke-miterlimit="10" x1="60.3" y1="37.5" x2="63.5" y2="48.4"/>
  <line fill="none" stroke="#2E3B4E" stroke-width="2" stroke-linecap="round" stroke-linejoin="round" stroke-miterlimit="10" x1="46.8" y1="37.5" x2="47.9" y2="48.4"/>
  <line fill="none" stroke="#2E3B4E" stroke-width="2" stroke-linecap="round" stroke-linejoin="round" stroke-miterlimit="10" x1="33.5" y1="37.5" x2="32.4" y2="48.4"/>
  <line fill="none" stroke="#2E3B4E" stroke-width="2" stroke-linecap="round" stroke-linejoin="round" stroke-miterlimit="10" x1="20.2" y1="37.5" x2="16.9" y2="48.4"/>
  <path fill="none" stroke="#2E3B4E" stroke-width="2" stroke-linejoin="round" stroke-miterlimit="10" d="M75,57.9V76 c0,1.6-1.3,3-3,3H8c-1.7,0-3-1.4-3-3V57.9"/>
  <path fill="none" stroke="#2E3B4E" stroke-width="2" stroke-linecap="round" stroke-linejoin="round" stroke-miterlimit="10" d="M65,56v10c0,0.5-0.5,1-1,1H38c-0.5,0-1-0.5-1-1v-7.5"/>
  <path fill="none" stroke="#2E3B4E" stroke-width="2" stroke-linecap="round" stroke-linejoin="round" stroke-miterlimit="10" d="M57.1,15.6V9c0-1.7,1.3-3,3-3H66c1.6,0,3,1.3,3,3v9.9"/>
</svg>