<svg xmlns="http://www.w3.org/2000/svg" viewBox="0 0 68 68" width="68" height="68">
  <line fill="none" stroke="#2E3B4E" stroke-width="2" stroke-linecap="round" stroke-linejoin="round" stroke-miterlimit="10" x1="54" y1="22" x2="14" y2="22"/>
  <path fill="#2E3B4E" d="M19,18c0,0.6-0.4,1-1,1c-0.6,0-1-0.4-1-1s0.4-1,1-1C18.6,17,19,17.4,19,18"/>
  <path fill="#2E3B4E" d="M23,18c0,0.6-0.4,1-1,1c-0.6,0-1-0.4-1-1s0.4-1,1-1C22.6,17,23,17.4,23,18"/>
  <path fill="#2E3B4E" d="M27,18c0,0.6-0.4,1-1,1c-0.6,0-1-0.4-1-1s0.4-1,1-1C26.6,17,27,17.4,27,18"/>
  <path fill="none" stroke="#2E3B4E" stroke-width="2" stroke-linecap="round" stroke-linejoin="round" stroke-miterlimit="10" d="M54,50.2c0,2.1-1.7,3.8-3.8,3.8H17.8c-2.1,0-3.8-1.7-3.8-3.8V17.8c0-2.1,1.7-3.8,3.8-3.8h32.5c2.1,0,3.8,1.7,3.8,3.8V50.2z"/>
  <circle fill="none" stroke="#2E3B4E" stroke-width="2" stroke-linecap="round" stroke-linejoin="round" stroke-miterlimit="10" cx="34" cy="34" r="33"/>
  <line fill="none" stroke="#2E3B4E" stroke-width="2" stroke-linecap="round" stroke-linejoin="round" stroke-miterlimit="10" x1="33" y1="29" x2="49" y2="29"/>
  <line fill="none" stroke="#2E3B4E" stroke-width="2" stroke-linecap="round" stroke-linejoin="round" stroke-miterlimit="10" x1="33" y1="33" x2="42" y2="33"/>
  <circle fill="none" stroke="#2E3B4E" stroke-width="2" stroke-linecap="round" stroke-linejoin="round" stroke-miterlimit="10" cx="25" cy="41.8" r="2.8"/>
  <path fill="none" stroke="#2E3B4E" stroke-width="2" stroke-linecap="round" stroke-linejoin="round" stroke-miterlimit="10" d="M29,49c-0.9-1.2-2.4-2-4-2c-1.6,0-3.1,0.8-4,2"/>
  <line fill="none" stroke="#2E3B4E" stroke-width="2" stroke-linecap="round" stroke-linejoin="round" stroke-miterlimit="10" x1="33" y1="42" x2="48" y2="42"/>
  <line fill="none" stroke="#2E3B4E" stroke-width="2" stroke-linecap="round" stroke-linejoin="round" stroke-miterlimit="10" x1="33" y1="46" x2="44" y2="46"/>
  <circle fill="none" stroke="#2E3B4E" stroke-width="2" stroke-linecap="round" stroke-linejoin="round" stroke-miterlimit="10" cx="25" cy="28.8" r="2.8"/>
  <path fill="none" stroke="#2E3B4E" stroke-width="2" stroke-linecap="round" stroke-linejoin="round" stroke-miterlimit="10" d="M29,36c-0.9-1.2-2.4-2-4-2c-1.6,0-3.1,0.8-4,2"/>
</svg>