<svg xmlns="http://www.w3.org/2000/svg" viewBox="0 0 80 80" width="80" height="80">
  <path fill="none" stroke="#2E3B4E" stroke-width="2" stroke-miterlimit="10" d="M27.3,71H6c-2.8,0-5-2.2-5-5V14c0-2.8,2.2-5,5-5 h68c2.8,0,5,2.2,5,5v52c0,2.8-2.2,5-5,5H52.7"/>
  <path fill="none" stroke="#2E3B4E" stroke-width="2" stroke-miterlimit="10" d="M26.6,61H12c-0.6,0-1-0.5-1-1V20c0-0.5,0.4-1,1-1 h56c0.6,0,1,0.5,1,1v40c0,0.5-0.4,1-1,1H53.4"/>
  <circle fill="#2E3B4E" cx="74" cy="40" r="2"/>
  <circle fill="#2E3B4E" cx="6" cy="40" r="1"/>
  <circle fill="none" stroke="#2E3B4E" stroke-width="2" stroke-linecap="round" stroke-linejoin="round" stroke-miterlimit="10" cx="40" cy="65" r="14"/>
  <path fill="#2E3B4E" d="M36,59"/>
  <path fill="#2E3B4E" d="M32,63"/>
  <path fill="#2E3B4E" d="M44,71"/>
  <path fill="#2E3B4E" d="M48,67"/>
  <polygon fill="#2E3B4E" points="48,58 48,63 43,63"/>
  <polygon fill="#2E3B4E" points="32,72 32,67 37,67"/>
  <path fill="none" stroke="#2E3B4E" stroke-width="2" stroke-linecap="round" stroke-linejoin="round" stroke-miterlimit="10" d="M45.6,60.8c-1.1-1.4-2.7-2.4-4.6-2.7c-3.1-0.4-6,1.3-7.2,3.9"/>
  <path fill="none" stroke="#2E3B4E" stroke-width="2" stroke-linecap="round" stroke-linejoin="round" stroke-miterlimit="10" d="M34.4,69.2c1.1,1.4,2.7,2.4,4.6,2.7c3.1,0.4,6-1.3,7.3-4"/>
</svg>